<svg width="35" height="38" viewBox="0 0 35 38" fill="none" xmlns="http://www.w3.org/2000/svg">
<g clip-path="url(#clip0_109_196)" filter="url(#filter0_d_109_196)">
<rect x="4.84668" y="12.3188" width="17.0737" height="17.0738" fill="#7595FD"/>
<path d="M12.603 23.0265L12.9079 25.7339L14.8836 23.8558L18.2617 14.5872C17.4324 14.3798 16.7007 13.9652 16.1031 13.392L12.603 23.0265ZM22.8594 13.392C22.2619 13.9652 21.5179 14.3798 20.7008 14.5872L24.079 23.8558L26.0547 25.7339L26.3718 23.0265L22.8594 13.392V13.392ZM23.0668 10.6114C23.4326 8.70892 22.335 7.02593 20.7008 6.44055V5.00147C20.7008 4.33072 20.152 3.78192 19.4813 3.78192C18.8105 3.78192 18.2617 4.33072 18.2617 5.00147V6.44055C16.847 6.95276 15.8226 8.29427 15.8226 9.87969C15.8226 12.1237 17.8471 13.9042 20.1642 13.4774C21.6033 13.2091 22.7863 12.0505 23.0668 10.6114V10.6114ZM19.4813 11.0992C18.8105 11.0992 18.2617 10.5504 18.2617 9.87969C18.2617 9.20893 18.8105 8.66014 19.4813 8.66014C20.152 8.66014 20.7008 9.20893 20.7008 9.87969C20.7008 10.5504 20.152 11.0992 19.4813 11.0992Z" fill="#292E3D"/>
</g>
<defs>
<filter id="filter0_d_109_196" x="0.84668" y="0.123291" width="37.2693" height="37.2693" filterUnits="userSpaceOnUse" color-interpolation-filters="sRGB">
<feFlood flood-opacity="0" result="BackgroundImageFix"/>
<feColorMatrix in="SourceAlpha" type="matrix" values="0 0 0 0 0 0 0 0 0 0 0 0 0 0 0 0 0 0 127 0" result="hardAlpha"/>
<feOffset dy="4"/>
<feGaussianBlur stdDeviation="2"/>
<feComposite in2="hardAlpha" operator="out"/>
<feColorMatrix type="matrix" values="0 0 0 0 0 0 0 0 0 0 0 0 0 0 0 0 0 0 0.25 0"/>
<feBlend mode="normal" in2="BackgroundImageFix" result="effect1_dropShadow_109_196"/>
<feBlend mode="normal" in="SourceGraphic" in2="effect1_dropShadow_109_196" result="shape"/>
</filter>
<clipPath id="clip0_109_196">
<rect width="29.2693" height="29.2693" fill="white" transform="translate(4.84668 0.123291)"/>
</clipPath>
</defs>
</svg>
