<svg width="20" height="13" viewBox="0 0 20 13" fill="none" xmlns="http://www.w3.org/2000/svg">
<path fill-rule="evenodd" clip-rule="evenodd" d="M19.5526 6.6029C19.5526 6.41964 19.481 6.24389 19.3536 6.1143C19.2262 5.98472 19.0533 5.91192 18.8731 5.91192L2.84829 5.91192L7.12457 1.56425C7.18774 1.50001 7.23785 1.42374 7.27204 1.3398C7.30623 1.25586 7.32382 1.16589 7.32382 1.07503C7.32382 0.984179 7.30623 0.894213 7.27204 0.810273C7.23785 0.726333 7.18774 0.650063 7.12457 0.585818C7.0614 0.521574 6.98641 0.470612 6.90387 0.435843C6.82134 0.401074 6.73288 0.383179 6.64354 0.383179C6.55421 0.383179 6.46574 0.401074 6.38321 0.435843C6.30067 0.470612 6.22568 0.521574 6.16251 0.585818L0.727133 6.11369C0.66386 6.17787 0.613661 6.25412 0.579409 6.33807C0.545157 6.42202 0.527527 6.51201 0.527527 6.6029C0.527527 6.69379 0.545157 6.78378 0.579409 6.86773C0.613661 6.95168 0.66386 7.02793 0.727133 7.09212L6.16251 12.62C6.22568 12.6842 6.30067 12.7352 6.38321 12.77C6.46574 12.8047 6.55421 12.8226 6.64354 12.8226C6.73288 12.8226 6.82134 12.8047 6.90387 12.77C6.98641 12.7352 7.0614 12.6842 7.12457 12.62C7.18774 12.5557 7.23785 12.4795 7.27204 12.3955C7.30623 12.3116 7.32382 12.2216 7.32382 12.1308C7.32382 12.0399 7.30623 11.9499 7.27204 11.866C7.23785 11.7821 7.18774 11.7058 7.12457 11.6416L2.84829 7.29388L18.8731 7.29388C19.0533 7.29388 19.2262 7.22109 19.3536 7.0915C19.481 6.96192 19.5526 6.78616 19.5526 6.6029Z" fill="white"/>
</svg>
