<svg width="31" height="30" viewBox="0 0 31 30" fill="none" xmlns="http://www.w3.org/2000/svg">
<g clip-path="url(#clip0_109_184)">
<rect x="0.758301" y="12.7522" width="17.0737" height="17.0738" fill="#7595FD"/>
<path d="M14.1734 7.87398H17.832L21.8443 3.84945C21.9577 3.73514 22.0926 3.64442 22.2412 3.5825C22.3898 3.52059 22.5492 3.48871 22.7102 3.48871C22.8712 3.48871 23.0306 3.52059 23.1792 3.5825C23.3279 3.64442 23.4627 3.73514 23.5761 3.84945L26.7226 7.00809C26.9497 7.23659 27.0772 7.54569 27.0772 7.86788C27.0772 8.19007 26.9497 8.49917 26.7226 8.72766L23.9298 11.5326H14.1734V13.9717C14.1734 14.2952 14.0449 14.6054 13.8162 14.8341C13.5874 15.0628 13.2772 15.1913 12.9538 15.1913C12.6304 15.1913 12.3202 15.0628 12.0914 14.8341C11.8627 14.6054 11.7342 14.2952 11.7342 13.9717V10.3131C11.7342 9.66619 11.9912 9.0458 12.4486 8.58837C12.9061 8.13095 13.5265 7.87398 14.1734 7.87398ZM6.85603 13.9717V18.85L4.06326 21.6427C3.83611 21.8712 3.70862 22.1803 3.70862 22.5025C3.70862 22.8247 3.83611 23.1338 4.06326 23.3623L7.2097 26.521C7.32308 26.6353 7.45796 26.726 7.60657 26.7879C7.75519 26.8498 7.91459 26.8817 8.07559 26.8817C8.23658 26.8817 8.39598 26.8498 8.5446 26.7879C8.69321 26.726 8.8281 26.6353 8.94147 26.521L14.1734 21.2891H19.0516C19.375 21.2891 19.6852 21.1606 19.9139 20.9319C20.1426 20.7032 20.2711 20.393 20.2711 20.0695V18.85H21.4907C21.8141 18.85 22.1243 18.7215 22.353 18.4928C22.5817 18.264 22.7102 17.9539 22.7102 17.6304V16.4109H23.9298C24.2532 16.4109 24.5634 16.2824 24.7921 16.0537C25.0208 15.8249 25.1493 15.5147 25.1493 15.1913V13.9717H16.6125V15.1913C16.6125 15.8382 16.3555 16.4586 15.8981 16.916C15.4406 17.3734 14.8202 17.6304 14.1734 17.6304H11.7342C11.0874 17.6304 10.467 17.3734 10.0095 16.916C9.55212 16.4586 9.29514 15.8382 9.29514 15.1913V11.5326L6.85603 13.9717Z" fill="#292E3D"/>
</g>
<defs>
<clipPath id="clip0_109_184">
<rect width="29.2693" height="29.2693" fill="white" transform="translate(0.758301 0.556641)"/>
</clipPath>
</defs>
</svg>
