<svg width="30" height="30" viewBox="0 0 30 30" fill="none" xmlns="http://www.w3.org/2000/svg">
<g clip-path="url(#clip0_109_171)">
<rect x="0.569221" y="12.7522" width="17.0737" height="17.0738" fill="#7595FD"/>
<path d="M23.7298 2.99579H11.5574C10.2025 2.99579 9.10609 4.09217 9.10609 5.44709V12.3217L3.37175 17.9829C3.19993 18.1528 3.08247 18.37 3.03428 18.6068C2.98608 18.8436 3.00932 19.0893 3.10105 19.3129C3.19277 19.5365 3.34885 19.7278 3.54948 19.8625C3.7501 19.9972 3.98622 20.0693 4.22787 20.0695V26.1673C4.22787 26.4908 4.35636 26.801 4.58507 27.0297C4.81378 27.2584 5.12398 27.3869 5.44743 27.3869H24.9603C25.2837 27.3869 25.5939 27.2584 25.8226 27.0297C26.0514 26.801 26.1798 26.4908 26.1798 26.1673V5.44587C26.1798 4.09217 25.0847 2.99579 23.7298 2.99579ZM13.8892 18.9854V24.9478H6.66698V18.1573L10.3098 14.5608L13.8892 18.2231V18.9854V18.9854ZM16.4234 11.5327H13.9843V9.09356H16.4234V11.5327ZM21.3016 21.2891H18.8625V18.85H21.3016V21.2891ZM21.3016 16.4109H18.8625V13.9718H21.3016V16.4109ZM21.3016 11.5327H18.8625V9.09356H21.3016V11.5327Z" fill="#292E3D"/>
<path d="M9.1061 18.85H11.5452V21.2891H9.1061V18.85Z" fill="#14171F"/>
</g>
<defs>
<clipPath id="clip0_109_171">
<rect width="29.2693" height="29.2693" fill="white" transform="translate(0.569221 0.556641)"/>
</clipPath>
</defs>
</svg>
