<svg width="31" height="30" viewBox="0 0 31 30" fill="none" xmlns="http://www.w3.org/2000/svg">
<g clip-path="url(#clip0_109_202)">
<rect x="0.758301" y="12.3188" width="17.0737" height="17.0738" fill="#7595FD"/>
<path d="M26.3689 17.197C26.3689 16.5263 25.8201 15.9775 25.1494 15.9775H22.7103V18.4166H25.1494C25.8201 18.4166 26.3689 17.8678 26.3689 17.197ZM25.1494 20.8557H22.7103V23.2948H25.1494C25.8201 23.2948 26.3689 22.746 26.3689 22.0753C26.3689 21.4045 25.8201 20.8557 25.1494 20.8557ZM15.393 17.197H12.9539V22.0753H15.393C15.393 23.4168 16.4906 24.5144 17.8321 24.5144H21.4907V14.7579H17.8321C16.4906 14.7579 15.393 15.8555 15.393 17.197Z" fill="white"/>
<path d="M6.8561 15.9774C6.8561 14.6359 7.9537 13.5383 9.29521 13.5383H11.1245C13.4783 13.5383 15.393 11.6236 15.393 9.2699C15.393 6.91616 13.4783 5.00146 11.1245 5.00146H6.8561C6.18534 5.00146 5.63655 5.55026 5.63655 6.22102C5.63655 6.89177 6.18534 7.44057 6.8561 7.44057H11.1245C12.1368 7.44057 12.9539 8.25767 12.9539 9.2699C12.9539 10.2821 12.1368 11.0992 11.1245 11.0992H9.29521C6.59999 11.0992 4.41699 13.2822 4.41699 15.9774C4.41699 18.6727 6.59999 20.8557 9.29521 20.8557H11.7343V18.4166H9.29521C7.9537 18.4166 6.8561 17.319 6.8561 15.9774Z" fill="white"/>
</g>
<defs>
<clipPath id="clip0_109_202">
<rect width="29.2693" height="29.2693" fill="white" transform="translate(0.758301 0.123291)"/>
</clipPath>
</defs>
</svg>
