<svg width="30" height="30" viewBox="0 0 30 30" fill="none" xmlns="http://www.w3.org/2000/svg">
<path d="M26.2994 9.85197C26.9463 9.85197 27.5667 10.1089 28.0241 10.5664C28.4815 11.0238 28.7385 11.6442 28.7385 12.2911V17.1693C28.7385 17.8162 28.4815 18.4366 28.0241 18.894C27.5667 19.3514 26.9463 19.6084 26.2994 19.6084H25.0043C24.7069 21.9662 23.5594 24.1344 21.777 25.7062C19.9946 27.2779 17.6999 28.1452 15.3234 28.1453V25.7062C17.2641 25.7062 19.1253 24.9352 20.4976 23.563C21.8698 22.1907 22.6408 20.3295 22.6408 18.3888V11.0715C22.6408 9.13085 21.8698 7.26966 20.4976 5.8974C19.1253 4.52513 17.2641 3.7542 15.3234 3.7542C13.3828 3.7542 11.5216 4.52513 10.1493 5.8974C8.77705 7.26966 8.00612 9.13085 8.00612 11.0715V19.6084H4.34746C3.70056 19.6084 3.08017 19.3514 2.62275 18.894C2.16532 18.4366 1.90835 17.8162 1.90835 17.1693V12.2911C1.90835 11.6442 2.16532 11.0238 2.62275 10.5664C3.08017 10.1089 3.70056 9.85197 4.34746 9.85197H5.64262C5.94023 7.49444 7.08789 5.32654 8.87026 3.75503C10.6526 2.18351 12.9472 1.31641 15.3234 1.31641C17.6997 1.31641 19.9942 2.18351 21.7766 3.75503C23.559 5.32654 24.7066 7.49444 25.0043 9.85197H26.2994ZM10.1525 19.3462L11.4453 17.2778C12.6076 18.0059 13.9519 18.3911 15.3234 18.3888C16.695 18.3911 18.0393 18.0059 19.2016 17.2778L20.4943 19.3462C18.9446 20.3171 17.1522 20.8308 15.3234 20.828C13.4947 20.8308 11.7023 20.3171 10.1525 19.3462Z" fill="#F9995D"/>
</svg>
