<svg width="31" height="30" viewBox="0 0 31 30" fill="none" xmlns="http://www.w3.org/2000/svg">
<g clip-path="url(#clip0_109_178)">
<rect x="0.84668" y="12.7522" width="17.0737" height="17.0738" fill="#7595FD"/>
<path d="M24.628 4.21534C23.8196 4.21599 23.0444 4.53742 22.4728 5.10905C21.9012 5.68069 21.5797 6.45581 21.5791 7.26423C21.5791 7.69961 21.6742 8.11304 21.8401 8.48988L19.4559 11.1717C18.6459 10.6126 17.685 10.3132 16.7009 10.3131C15.7984 10.3131 14.9642 10.5765 14.2386 11.0034L11.4653 8.23133L11.4373 8.25938C11.6763 7.774 11.8227 7.23374 11.8227 6.65445C11.8227 5.93084 11.6081 5.22347 11.2061 4.62181C10.804 4.02014 10.2326 3.5512 9.56411 3.27429C8.89558 2.99737 8.15994 2.92492 7.45023 3.06609C6.74052 3.20726 6.08861 3.55571 5.57694 4.06739C5.06527 4.57906 4.71681 5.23097 4.57564 5.94068C4.43447 6.65039 4.50693 7.38603 4.78384 8.05456C5.06076 8.72309 5.5297 9.2945 6.13136 9.69652C6.73302 10.0985 7.44039 10.3131 8.164 10.3131C8.74329 10.3131 9.28233 10.1668 9.76894 9.92773L9.74089 9.95578L12.5142 12.7278C12.0661 13.4718 11.8272 14.3229 11.8227 15.1913C11.8227 16.4072 12.2861 17.5073 13.0239 18.3634L9.88114 21.505C9.52889 21.364 9.15319 21.2907 8.77378 21.2891C7.09324 21.2891 5.7249 22.6562 5.7249 24.338C5.7249 26.0197 7.09324 27.3869 8.77378 27.3869C10.4543 27.3869 11.8227 26.0197 11.8227 24.338C11.8227 23.9465 11.7422 23.5745 11.6068 23.2294L15.0679 19.7683C15.5813 19.9512 16.1252 20.0695 16.7009 20.0695C19.3912 20.0695 21.5791 17.8817 21.5791 15.1913C21.5791 14.4157 21.3803 13.6925 21.0571 13.04L23.6389 10.1338C23.9511 10.2412 24.2804 10.3131 24.628 10.3131C26.3097 10.3131 27.6769 8.94599 27.6769 7.26423C27.6769 5.58246 26.3097 4.21534 24.628 4.21534ZM16.7009 17.6304C15.3557 17.6304 14.2618 16.5365 14.2618 15.1913C14.2618 13.8462 15.3557 12.7522 16.7009 12.7522C18.046 12.7522 19.14 13.8462 19.14 15.1913C19.14 16.5365 18.046 17.6304 16.7009 17.6304Z" fill="white"/>
</g>
<defs>
<clipPath id="clip0_109_178">
<rect width="29.2693" height="29.2693" fill="white" transform="translate(0.84668 0.556641)"/>
</clipPath>
</defs>
</svg>
