<svg width="30" height="30" viewBox="0 0 30 30" fill="none" xmlns="http://www.w3.org/2000/svg">
<path d="M26.7687 20.9011L20.0002 14.1326L21.9149 12.2179L17.3415 7.64459L15.4268 9.55929L8.65832 2.79077L2.88983 8.55926L9.65835 15.3278L3.85328 21.1329V25.7062H8.4266L14.2317 19.9011L21.0002 26.6696L26.7687 20.9011V20.9011ZM11.3901 13.596L6.34117 8.55926L8.65832 6.24211L10.2072 7.79094L8.75588 9.24221L10.4755 10.9618L11.9267 9.51051L13.6951 11.2789L11.3901 13.596V13.596ZM15.9634 18.1693L18.2806 15.8522L20.049 17.6205L18.5977 19.0718L20.3173 20.7914L21.7685 19.3401L23.3174 20.8889L21.0002 23.2061L15.9634 18.1693V18.1693ZM18.6501 6.34333L21.7453 3.24688L26.3162 7.81777L23.221 10.9142L18.6501 6.34333Z" fill="#F9995D"/>
</svg>
